<svg width="103.00641439953795" height="69.71747508506108" xmlns="http://www.w3.org/2000/svg"><rect x="0" y="0" width="103.00641439953795" height="69.71747508506108" id="background" fill="#CCC5B8"/>
<g id="map" transform="translate(51.50320719976897 34.85873754253054)">
<g id="waterbody">
  <polygon points="36.30364159631343,30.2315366876075 35.95862341420874,29.68430160153404 35.601945181685316,29.144593880766013 35.66616888442083,28.499747272189165 35.80677838017057,27.86714881954236 35.668228147743875,27.247800725865595 35.423319032123636,26.662302858121695 34.85060594311324,26.368495210752002 34.42691450468367,25.883924492509315 33.76679034861726,25.83896736540888 33.229808207427,25.4523988401223 32.97618836354558,24.853238642004456 32.499778442149996,24.41012516329398 31.88882813866471,24.704740186712947 31.227291218481188,24.554983088093138 30.613624521048674,24.333326810599107 30.128586335769135,23.89691384137045 26.135154669866587,7.301634970706571 38.26504955114454,-0.12261686398248237 38.760701502416865,-0.29560463143750104 39.285364852468206,-0.3136044537155297 39.825196874230535,-0.30990039564400784 40.2852908396011,-0.5922935166575957 40.689198423635354,-0.9949680491019914 41.256008207020926,-1.0583303800100525 41.81058965156273,-1.197722761338893 42.32769667019978,-0.953609783644316 42.74074135415612,-1.3178836481866607 42.91426222919978,-1.8405612402616425 43.26159403632809,-2.251592363822159 43.71774992712415,-2.537088024157825 44.26858147869171,-2.571752969563823 44.747964106802954,-2.8452659537299825 45.03726927001238,-3.338162714806643 45.57452743661102,-3.5330943873551646 45.97206402174875,-4.074068996424752 46.563142779493646,-4.39236880214839 47.19574015839841,-4.564797562162246 47.80897420075267,-4.796864643789403 48.42426098164038,-5.138030829172605 49.11069432183471,-4.983818448820899 49.711099343140106,-5.267501569374107 50.209587637075224,-5.706217563275851 50.61414109757844,-6.350023681883372 51.321601788457585,-6.628679727255459 52.04944212263868,-6.516772688641722 52.7651121500831,-6.690240694826899 53.18717582785573,-7.287364489745086 53.17692497601526,-8.01852076208979 53.57876536089301,-8.586544407584675 54.02103830188412,-9.123686104371544 54.55876168861447,-9.576230869160026 54.82699409583787,-10.225841968579791 54.975601615184,-10.925016915347083 55.49382508427813,-11.417332095971553 56.099222498293564,-11.759658182980619 56.699872842809484,-12.11024674864759 57.36905980653514,-12.371068582579595 58.080922743527566,-12.275725096108077 58.47030453332595,-12.866247675904406 59.13005049479806,-13.121336605098016 59.67860005863001,-13.517395475900422 60.14573423381037,-14.006838951186447 60.4023118793504,-14.637556791190468 60.4679117327964,-15.315298438957567 60.651845542529216,-15.963494836130366 60.845199672535266,-16.60894382410713 61.53613502401987,-16.45623278166705 62.24210027796538,-16.504455003058748 62.98972603210153,-16.443430560159044 63.58653094389492,-16.897844631396016 64.16851988726452,-17.31597750095059 64.87631153209826,-17.428125681096173 65.3187224955665,-17.9861198801148 65.94651795704128,-18.322211899191462 66.64299528422673,-18.40163383557695 67.33655981816315,-18.50340194712548 67.97406323540199,-18.823792978720416 68.4492791773147,-19.35598733106708 69.8559697671826,-19.15425486891282 71.11982273195838,-19.803985648033887 72.44711637605312,-20.097097926422236 73.7924547662908,-20.29123149165244 75.11442948791249,-20.64199737281769 76.48171943535526,-20.676232845916196 77.88417130738026,-20.2441507085799 79.06336344561633,-19.37061071071273 80.49802477304344,-19.590660658017498 81.87709577013726,-20.043251299434626 81.74987906401117,-21.357569717839826 82.27797571905361,-22.567830399763228 82.04338708093587,-23.826600557143067 81.6587064755915,-25.047892893201848 82.36690673954243,-26.086341725648957 83.2326234446391,-26.99763650670913 83.844338887394,-28.10060416260831 84.6919627920321,-29.0345565967026 85.13214153149133,-30.177760315986923 86.01564699542689,-31.026341580011437 86.84060697065702,-31.969982027758704 86.97755656206009,-33.21587972210237 87.52496911034387,-34.375770400454286 88.32889714117556,-35.375123493704756 87.87787409082733,-36.59148274480397 87.91355574629009,-37.888278194805046 89.31245101645413,-38.090145160172575 90.72121144265921,-37.975898452769 91.97612024346726,-38.6325380916116 93.02149524795519,-39.58813361987483 94.24662974020217,-40.31438328838231 95.34886806948808,-41.21630555252347 96.0273038306637,-42.49013785761281 96.21640241035033,-43.92092978891926 97.33976904319405,-44.30584408127827 98.08131171899961,-45.2333278084714 99.06068425230688,-45.94322064796148 100.26854707983375,-45.87852294757888 101.23610903195677,-46.45955450553358 102.25432741056643,-46.94638623826772 103.35897219001924,-47.21420397458647 104.35980125231771,-47.75300599455117 105.58327002355671,-47.98272612824776 106.80956744509471,-47.76861912707353 107.99941602297285,-47.36262551855578 108.89038460292625,-46.475638800520116 110.06380716607529,-46.658740674631844 111.22115521088253,-46.92518449833844 113.35740486464358,-47.96008564248007 115.60221625094283,-47.74239910936432 117.82287602962725,-47.34839944681109 119.40698182049427,-45.62660320999485 121.65365724284716,-44.97359250229667 123.32017251371134,-43.415232942631825 125.11669026633965,-42.00871894351429 127.43620628910583,-41.99243586604873 129.5905860379276,-41.13274544714933 129.47230174349272,-39.268548629123224 129.48836886265227,-37.4006720811869 130.31816580854903,-35.71937828112507 130.82111971033436,-33.91318084279644 131.677758331566,-32.16590034013274 131.54642313191985,-30.224362303495738 130.4266947229146,-28.578896490302462 130.57052972656908,-26.593786683756484 130.72043095799236,-24.7560059600763 131.27935669598708,-22.998874665346236 131.04441218090085,-21.136136718973376 131.62682674406628,-19.351260012127973 130.95618024846004,-17.590004279813353 131.10853741453025,-15.711553915649562 131.33087685599259,-13.88218126839593 131.29263724153478,-12.039743524092021 132.8069527761484,-10.70170910381412 133.19128010985568,-8.717829029619603 133.512060897211,-6.689085229928187 132.372528663029,-4.980235322656394 130.96179588626586,-3.6301839689602104 130.71121545016376,-1.6936884047789735 131.34827170736435,0.13167638266659112 130.806811814285,1.9876447192152278 130.39236452713294,3.4137490800731394 129.14432318145666,4.218691936037576 128.7161167540865,5.54235550395053 128.3055897500225,6.871608513875797 129.04957172726893,8.117647746616099 129.646132386881,9.440613479883117 129.20455639887103,10.83401085323696 129.14357109998602,12.294430788247519 129.96101483342352,13.47888445245586 130.36065940322683,14.861428830701817 130.55319126671932,16.325034637186775 129.95037171927046,17.672557946243032 129.3500580942085,18.907860174321208 128.55402554798357,20.027092155851673 128.2591479696795,21.369074687905236 127.73474379263817,22.639062940459162 127.19412515779635,24.053279291868417 125.84721256451867,24.744729118682738 124.80772064669141,25.70582344250792 123.87030265160845,26.766716108620688 122.70836111778425,27.67392270114698 121.23985752769107,27.80287670625112 119.98618079506865,28.476015852125617 118.61214762027736,28.84595435269091 117.51504876165939,29.953714989003053 116.0990840757425,30.606251226448823 115.37939487346507,31.99422798398621 115.2384889754872,33.55133348948472 115.5912604841657,35.04088574034292 114.98129812719874,36.44486564349517 115.32997237109994,37.87462258193578 115.20632007834956,39.34107706192373 114.48099003579381,40.82713432045256 113.5544618075174,42.19681139497308 112.37709458135046,43.470125064808926 110.67639295009788,43.809440918399126 110.7273974082492,45.50888107788301 110.93637989600418,47.196193920905806 109.51896927196577,48.25874865683355 108.90995146472672,49.922230774093975 107.10291902466538,50.99259250314704 106.09324742049219,52.83422322676722 104.36899424407801,53.98627917688428 103.28425868717598,55.75365879093639 101.90380785592092,57.446359688296305 99.77279229004114,57.92558143593922 97.87159578373836,59.072874527215376 95.70050387356035,58.60683857320795 93.72119680322743,59.59860121106988 92.50205286512114,61.44655620692541 91.53196842164787,63.383226494889804 91.21785931465996,65.52637630315338 90.76776547160839,67.65923649772174 91.66045641937211,69.64789935223172 92.08082009944155,71.77522278496244 91.23284054625206,73.77100365678663 89.5377671527007,72.86502151112886 87.91410366041825,71.8365302269628 86.14178146050126,71.05314772242356 84.2260164217188,70.762186479445 82.21360532523734,70.15947453268792 80.18020268254969,70.68704803914574 78.4410664967962,69.61040197884125 77.08965933789405,68.07499971798765 75.25165122741731,68.89194598634148 73.54925619928744,69.9631724739501 71.54359014798963,69.83317698949487 70.62046701885673,69.30348308631936 69.56814962650687,69.46273147205507 67.65166656864359,69.35071777182823 65.73761930055743,69.20280754348892 64.74399558492172,69.4568042058926 63.79222529952496,69.07478887030818 62.918466232682974,69.55937025284072 61.92137761024669,69.6233100854478 61.466101477205164,68.5648870324729 61.47491716561588,67.41273339687399 61.98319737944904,66.35476856069214 61.848903665757554,65.18874816257102 61.522880566233724,64.08818662614371 60.749132117046436,63.24034224521843 60.135238533059756,62.27405105400878 59.17559105468225,61.649822957946874 58.6786635357359,60.6735291822506 57.95963869114235,59.84703673315823 57.999807988376894,58.73934577640047 57.61440703856698,57.7000869366455 57.12950618023094,56.70071105515541 56.87900020792789,55.618524494178224 55.99049912689586,54.961985357714674 55.15870094514218,54.23494368522634 54.744186402481795,53.09503423433893 54.13464659745103,52.04637933954157 53.90144407919602,50.840512959608276 53.25634527345131,49.795360017881244 52.31401276852795,48.989875976225086 51.440982698108826,48.10975462814755 50.12883388154093,48.16168822032485 49.073643639466106,47.38002002483073 48.88914093250409,46.17239391552944 48.09648689633912,45.24282323629421 47.40856761222682,44.287447631917125 46.844614038716195,43.25403974835079 46.21771436114187,42.993952497829945 45.889797633945236,42.39971415873448 45.655700447238004,41.80293603369994 45.466229976485565,41.19052557979111 44.90103993240549,40.86058866389562 44.40948130745776,40.4285374254558 43.75848927765554,40.34269790940488 43.106675969280545,40.42206072441991 42.492823140720674,39.925855400271836 42.17714308377937,39.20240455847718 41.8295534091345,38.514506224619495 41.350155259388345,37.91101627966277 40.976707594676164,37.22222311736509 40.38908829295019,36.703954138025125 40.28471748417338,35.901356199661876 39.73677444497463,35.305692584705156 39.24018631165378,34.71436392164636 38.74445376769233,34.1223178028621 38.19799799230999,33.57583979983471 37.69764675655161,32.986856979103415 37.32635249171148,32.217412666073386 36.56513254228662,31.8295361772847 36.407118628020314,31.034998543073485" fill="#67635C" stroke="#99948A" stroke-width="0.3"/><path d="M 42.89663254914801,32.949194490609244 C 42.306494422739235,32.15969882540453 40.97113384499863,30.778115033084685 40.441010597979904,30.01906089653259 C 40.11024743878258,29.545459435703044 39.73678793954684,28.620938857442837 39.604804634026024,28.23580829250741 C 39.46084335550693,27.815725704743034 39.407006218232105,26.726298758944722 39.12748363053333,26.18615656795592 C 38.80346832225454,25.56003779892028 37.74318568010423,24.12464389081168 37.05439343505832,23.307459910095776 C 36.46325903825393,22.606137322634716 34.21446279560724,21.190639036320082 33.70581554682756,19.75388277476339 C 32.94901570872899,17.616179467133414 31.62196575974671,12.602760552676756 32.38926724805003,10.130057936101208 C 33.130953180505294,7.739903904320668 37.17672774255338,5.5379501789319985 38.43567684728419,4.511451224760742 C 39.06947540835904,3.994676116335937 40.16394042878651,3.6932972735251495 40.41780653825693,3.5838940332463873 C 40.78175557704941,3.4270507105070944 41.403319456836556,3.2087374178985693 41.65148413923946,3.1256036274351566 C 41.83658518150719,3.0635958062035207 42.329095868504076,2.9637398126739396 42.61055802325827,2.8493344628540025 C 43.18069914684327,2.6175903594684615 44.38323513993358,2.1044467061044787 44.9857525487941,1.7703303256948266 C 45.34611456457705,1.570497340655888 45.88171252746084,1.0749576578277957 46.134167669126725,0.8953731605895577 C 46.47070406573869,0.6559772853892286 47.1436224475319,0.23417674612127873 47.454251817204224,0.014358167135727478 C 47.69710192026286,-0.15749604168282907 48.14666473792325,-0.5671603889974944 48.41263852548097,-0.7169992510472223 C 48.75516410854108,-0.9099642949333965 49.531978195111165,-1.2347895316500974 49.94967395568313,-1.3914616205839156 C 50.34140037400733,-1.5383929568401784 51.117429666201986,-1.7084997263098116 51.45570245888984,-1.858411801065637 C 51.78945769770784,-2.006321835195998 52.32719037274724,-2.3990658675364243 52.57749196062036,-2.5560295601768854 C 52.725206670197196,-2.6486611989511775 53.16343057265007,-2.8978852949591736 53.42644911025858,-3.0942636160148447 C 54.092147129753506,-3.591295728607162 55.43990562341363,-4.611888820922303 56.086573105787075,-5.176025359718804 C 56.37653455749369,-5.4289804783986595 56.71129014456696,-5.914256749510079 56.83521495172943,-6.067985684607393 C 57.0081377464005,-6.2824967069564845 57.367196194014284,-6.73664349136973 57.543424170230296,-6.983251595210362 C 57.75017050110331,-7.272566162212529 58.08263781203378,-7.897462375338578 58.31991172188822,-8.145625473300068 C 58.503282802491235,-8.337411984791819 58.987759842825,-8.630833285118957 59.24734706993194,-8.76537246023465 C 59.53735793278946,-8.915679633273513 60.33069360962216,-9.132787251894145 60.7320511894804,-9.395791969743941 C 61.210599361649116,-9.709378739534666 62.13346428134575,-10.502405029893463 62.585602918192976,-10.952890727093912 C 62.99146756162946,-11.357271600496858 63.5406807153084,-12.246207708634271 63.88607942835097,-12.538289633923016 C 64.17498332424522,-12.782597452539035 64.92375510317149,-13.035287507273818 65.26974235291141,-13.22269829797325 C 65.77328683044428,-13.495453056299475 66.66918052285327,-14.05937332925906 67.10056713216737,-14.279480046918508 C 67.33614192909603,-14.399677554666141 67.80844871641736,-14.549900112480291 68.02359432250373,-14.627798282209481 C 68.36177647334596,-14.750244522525055 69.14916670089202,-15.05892779745673 69.61560337031595,-15.190103895196023 C 70.10216349117968,-15.326939316067389 71.05231686077353,-15.486162805670226 71.49245015502164,-15.603345449827895 C 71.79645898579896,-15.684285835623125 72.41353958788058,-15.940887918300263 72.75346625584723,-16.025539602369506 C 73.32002855018695,-16.166630187091435 74.44213104388528,-16.41475071536174 75.00104321953086,-16.47708775842932 C 75.37542509650152,-16.51884361955631 75.98733778732048,-16.452505161619975 76.21468385315518,-16.411578911998834 C 76.38196387298844,-16.381465596322183 76.80781085638014,-16.15750551072395 77.10289229970803,-16.098718333801404 C 77.65756849745158,-15.988213764609492 79.06455179457156,-15.609462848407308 79.92233920167985,-15.672926597968527 C 80.6259395180773,-15.724982753026309 82.15792881523149,-16.076565898692987 82.83665206946219,-16.52293287817036 C 83.65860444651854,-17.06349546761153 84.95931005136819,-18.525059216012018 85.45337152103754,-19.31044774431817 C 85.86873826516327,-19.970738610745304 86.07463090777556,-21.29736254824645 86.16126068763664,-21.80792195365828 C 86.24279167902272,-22.288431249092923 86.13115476620669,-23.0901923503483 86.14675903168894,-23.396981448153532 C 86.15817756734859,-23.621476619506723 86.16147805518064,-24.158479946394845 86.29396854037267,-24.417036907441428 C 86.55677148269595,-24.929900378525556 87.33256782932445,-25.873494616803285 87.68658237873396,-26.401967387962603 C 87.92274737360064,-26.75451439343512 88.25037351531464,-27.31876746535904 88.36822183280283,-27.51348135404775 C 88.45195195608774,-27.651823744102014 88.61190706252549,-27.962105055244308 88.72165220648397,-28.11215278153639 C 88.9037226967492,-28.361086466470287 89.46374164004041,-28.94736899709133 89.72488873829589,-29.368367840706185 C 90.03404320117033,-29.8667600198189 90.46939862308894,-30.828033583028652 90.66754483934633,-31.24915316831565 C 90.76851275490161,-31.46373998975005 90.89439177987398,-31.860186710690613 90.97206873647507,-32.01899591492174 C 91.11225026627046,-32.305594645984804 91.46802458287165,-32.886802066437234 91.62702930586742,-33.21080268791368 C 91.74459748823661,-33.45036893120372 91.85561225190213,-34.031370844674385 92.06039015828154,-34.2366458714 C 92.241423133456,-34.41811832355167 93.03195387005593,-34.773548152735216 93.52264577058027,-35.111020965047985 C 94.38786890866136,-35.706077222088894 96.27791847276568,-36.972236358296264 97.19847975128947,-37.77036131079177 C 97.86989470305674,-38.352476851588094 98.70277446679734,-39.460794342978396 98.9893584793958,-39.85065093083002 C 99.23134252203795,-40.1798356342042 99.41605381670442,-40.77911933524535 99.53186905054717,-40.94460394243735 C 99.64856303050014,-41.111344161262174 99.96643467525965,-41.336422099795755 100.10613471136965,-41.44637603483909 C 100.26267572431304,-41.56958502495876 100.62382101635966,-41.88083061085247 100.86881616638313,-41.996877087272075 C 101.13415507767799,-42.12255976184679 101.82133663526643,-42.28511034531479 102.19852924146076,-42.437477338164754 C 102.59990139933714,-42.59961166345377 103.40350594485386,-43.02358521949374 103.8432602165993,-43.198404073456985 C 104.33233902877205,-43.39283128641477 105.14435863999526,-43.64995882885187 105.45741118302594,-43.733005415617356 C 105.60722168733145,-43.77274715009983 105.84984429805792,-43.76838472336934 105.92922520598711,-43.75176892014976 C 106.00758300518525,-43.735367271363415 106.31173232245034,-43.571362392292905 106.56271281413471,-43.501646580352265 C 107.15734738501861,-43.336472659307915 108.59209104247867,-42.85595664628543 109.46951283113745,-42.76836967411931 C 110.15995142898115,-42.69944794567194 111.32347317274152,-42.903166625772684 111.7866363001314,-42.98017828895581 C 112.14940487230623,-43.040497017804526 112.73166096893064,-43.274004293889746 112.97384869326353,-43.35104717397875 C 113.24820681862586,-43.43832385248075 113.80905727923152,-43.70434426134121 114.12616401240926,-43.72441069585587 C 114.5202976906622,-43.749351376129134 115.31189532342916,-43.64944427916937 115.67790562264905,-43.52215921803306 C 115.93622016195486,-43.43232682261135 116.3745336609255,-43.01918814074095 116.63727316253076,-42.851138325175576 C 116.98991346080538,-42.62558740221234 117.78064011593591,-42.13180923361794 118.23203040537466,-41.88852515826824 C 118.57848184390357,-41.701799568799125 119.45627851343146,-41.37648919667774 119.9066304384237,-41.08906550158334 C 120.5416169838834,-40.68380426231054 121.75367578295945,-39.61596975589627 122.48186509775658,-39.176194816067984 C 123.17125772805885,-38.759850334834134 124.36149513640693,-38.321242500185434 124.78025214706373,-38.14574204144701 C 125.01874061279206,-38.04579186969109 125.3813731738835,-38.000022575404174 125.44224379644878,-37.93550437641407 C 125.50456722670617,-37.869446312513375 125.48884796716268,-37.54768163645769 125.53584464026066,-37.344871855188785 C 125.60371494602369,-37.05198384931327 125.80466646545324,-36.10675616836951 126.0120188112612,-35.47669317746672 C 126.31160122204145,-34.566378953518225 127.0907912810216,-32.9006661955807 127.27657918647934,-32.05545778907484 C 127.36608850334468,-31.648251373303097 127.1494906083116,-30.8942444979622 127.09154622562978,-30.565578842925927 C 127.00086817431061,-30.051244929009183 126.62654388195362,-28.831102501087503 126.57774076602995,-28.09158456114256 C 126.51865384772641,-27.196235252507073 126.6608559628827,-25.581011488831443 126.71542993344056,-24.86625534041644 C 126.74941359235778,-24.42117082652768 126.88349218771167,-23.76200559161564 126.92513000286269,-23.541822277377587 C 126.97206947213915,-23.29360349172847 127.11986108463682,-22.837443976968892 127.14106181916334,-22.615487885305587 C 127.16397470916105,-22.375606785608777 127.10574433505886,-21.83127470886296 127.11737138850944,-21.529196414782458 C 127.13270244752648,-21.130885684208945 127.20343470290419,-20.40714456213373 127.23861393356496,-20.08102148522878 C 127.25996541797585,-19.88308617903322 127.34436549612924,-19.572586949965544 127.3412181775776,-19.454062813648648 C 127.33856519007804,-19.35415457529094 127.22919879511116,-19.052384076617397 127.20561776625392,-18.838426505364236 C 127.17334911445685,-18.545643590423868 127.02171375687139,-17.523719285052586 127.0479323729262,-16.792994934628457 C 127.08662305390793,-15.714668654219931 127.20514218387262,-13.4010253183437 127.44391554066476,-12.19696281979508 C 127.63580840311879,-11.229304608158094 128.30642809624473,-9.854442317579892 128.51854901932347,-9.377115803650828 C 128.65870791214942,-9.061722325545228 129.00496552407154,-8.681335462471047 129.06955474651835,-8.538857415697313 C 129.17641907722822,-8.30312426189042 129.25854641497472,-7.884511517892049 129.2676900132919,-7.724577786698617 C 129.2714022075615,-7.659646557235806 129.19660631792826,-7.498457389657799 129.13365325615482,-7.41768898129598 C 128.99210958245462,-7.236089279607272 128.44149150884726,-6.7481060749017505 128.18067862765753,-6.329948565886277 C 127.88836333434504,-5.8612836964937545 127.33112813425103,-4.805886177110866 127.13069145671878,-4.206369383564811 C 126.95797785741108,-3.6897737957034336 126.83148196937205,-2.681948894378791 126.80727457563687,-2.2220237906009697 C 126.78098717573315,-1.722579890896919 126.89915431168237,-0.8857195512865894 126.93819629259727,-0.5490835433853923 C 126.9661608387288,-0.30796173163601626 127.11063719627099,0.08317249407075236 127.09316791432262,0.24306609381070654 C 127.07675641263317,0.3932779966250588 126.91110643978162,0.8243703478850142 126.75960046210632,1.0855761020506467 C 126.52416067329033,1.4914889811456127 125.74571560275295,2.423315812710314 125.44442568346071,3.0856005234421326 C 125.16830860526191,3.692551196377291 124.73107637847222,5.017440358846782 124.64972168516637,5.723436070108584 C 124.5627056509027,6.478560876125676 124.72738458816079,7.866640698100573 124.82277438275091,8.480288086844016 C 124.89720964225508,8.959133888131754 125.27527250607675,9.743923307821634 125.3311959718674,10.107394734940694 C 125.38920932399418,10.484449261003496 125.28049705380518,11.342320962522045 125.33476835191811,11.807964153027159 C 125.41279978551815,12.47746731518836 125.67295234665374,13.680511350293667 125.81016462846178,14.216905676514534 C 125.88797956614118,14.521102141411601 126.1470314957899,14.938852711996642 126.17699794137694,15.10043307204928 C 126.20675674569875,15.260893821492829 126.22577266265954,15.711670386372903 126.1345063026566,15.96576989680627 C 125.96703436848969,16.432037385525792 125.42688309582051,17.35609041539386 125.18228445487692,17.86986761433838 C 125.04727627970948,18.153451046382603 124.79872115771832,18.728280678643042 124.68169232438318,19.017392315742285 C 124.48783829043768,19.496295296444305 124.19297019170725,20.518090845953488 123.92294497621607,20.980978679563673 C 123.74611507051134,21.284107451520274 123.19423525709925,21.767836133420893 122.9275198308794,22.024463725053163 C 122.47482684263694,22.46003474907681 121.6508809618157,23.21353488310534 121.2770980398432,23.5267531656233 C 121.13145154178387,23.648800330689483 120.85805203564952,23.81051006654295 120.74287720407612,23.855125243433584 C 120.54799509750163,23.930616559885827 119.93602972398365,24.054614141948285 119.54951893603508,24.195964018862956 C 119.01495804153345,24.391456923581725 117.88885043224805,24.82873529636876 117.31655976327467,25.10815507760301 C 116.85585713302804,25.333092220800683 116.15241604534506,25.80089756768429 115.88136901994461,25.986930921970195 C 115.66187506991422,26.137580779533813 115.32285010684325,26.468075318973113 115.15846241760303,26.58936700936157 C 114.99344462503896,26.71112361471794 114.514720732299,26.96325064641456 114.26508467242034,27.179488963060155 C 113.89199865063925,27.50266139797665 113.0790723267278,28.237696056614652 112.71337543704085,28.707336236186514 C 112.43751921033284,29.06160003087745 112.0112630777767,29.84787397024657 111.86842371059456,30.257361146901456 C 111.70244115052606,30.733194463984994 111.52419142600708,31.748375508751934 111.4723755900455,32.26499357953802 C 111.41852743629329,32.801874415109104 111.50518489167884,33.73279178070314 111.4810128616854,34.11995337668754 C 111.46581432627474,34.36338718128788 111.33549751708367,34.823228510541185 111.29846978256496,35.050429887262105 C 111.23864879956515,35.41749014279812 111.10102897688145,36.250310747590724 111.05733137549865,36.71965379595493 C 111.01674045541345,37.15562889678023 111.07876005195295,37.99472170969415 110.98898197798101,38.374547116546104 C 110.9036171035938,38.73570153555406 110.5589347336986,39.353242162241614 110.37281328733921,39.61565445435572 C 110.25487503837495,39.78193537922495 109.75031348945923,40.15531631069328 109.49652389680924,40.47876107804873 C 108.91368129141455,41.221570855779525 107.68113562243893,42.79796691968227 107.16121457535124,43.7087096005162 C 106.86620544481393,44.22547538239984 106.76221313003988,45.18587931283246 106.63163764843432,45.4971656930271 C 106.45920417105164,45.908239750260705 106.03641300953336,46.498697383533084 105.89317280001573,46.73166712153182 C 105.80402611107708,46.87665769949476 105.65916886378594,47.12682763943266 105.57827740578804,47.210379186458795 C 105.4791190486667,47.31279833358645 105.12927346654712,47.53397274137088 104.9373566408389,47.71891498117451 C 104.64507435574743,48.000575227795714 104.03385340593313,48.632867724644676 103.7283354689185,48.99309106723705 C 103.50393440438111,49.25767291908779 103.1892592546329,49.79881484590742 103.00364230720301,49.99887617653877 C 102.82427482365509,50.192201721040284 102.3497266517152,50.510824703550334 102.12883257640384,50.717064451434794 C 101.89039926749768,50.93967986312815 101.33171170508659,51.49102999774778 101.0338275703781,51.838011491187736 C 100.63995984202202,52.296796625000006 100.02273305889392,53.226302616008354 99.66786535203804,53.583649083922296 C 99.45954594486227,53.7934236081013 98.99219979273843,53.98661699102447 98.81654056592295,54.07078630863631 C 98.5519792368123,54.197554181531 98.03392951201742,54.381517853846404 97.79820315344139,54.47952113273778 C 97.62371869820306,54.55206307854405 97.31251059054561,54.73370676110149 97.15065589818252,54.76337817948037 C 97.00433419416925,54.79020206968894 96.5510638316018,54.728612482913924 96.25290073643687,54.76280803574572 C 95.78393943677028,54.816591992106744 94.63909763655205,54.92455214716351 94.0017576897656,55.1245171560808 C 93.47838038228393,55.28872645833052 92.44023078551825,55.76463606376371 91.97340343460147,56.1054976324638 C 91.52657104334163,56.431759556774196 90.61297849714387,57.33572475296751 90.18465220943038,57.91163868905346 C 89.62872267007921,58.659123908565235 88.71421573876951,60.236279620968695 88.31438799126472,61.02529370059806 C 88.05737407249724,61.532481112761936 87.68709369537785,62.58307136453989 87.55306709074428,63.10476928927931 C 87.31517462388665,64.03076459155588 87.15736456267535,65.69734207484291 86.94207936318286,66.36699854591323 C 86.87121458974158,66.58742732698018 86.51521856313512,66.96672611972812 86.31117094891026,66.96775564290192 C 85.67941861270752,66.97094315221291 84.22728451455671,66.50397148225674 83.36617087507807,66.38504080859734 C 82.73474058885907,66.29783230803933 81.76453143322952,66.31590685460219 81.4370084073944,66.29457221157352 C 81.27257284314143,66.28386098278095 80.96316683098225,66.27601714414315 80.83794171209527,66.22035355783272 C 80.64187435881593,66.13320002075544 80.04916926595642,65.57761261852234 79.51164755892886,65.43873361689009 C 78.64892688436143,65.21583324950961 76.66553881972054,64.82976544418035 75.55953491666754,64.8565763254459 C 74.73510890176027,64.87656141585734 73.37058188057611,65.51955143671752 72.74475453115748,65.60277134316165 C 72.05374121316416,65.69465940738331 70.88654138405695,65.56201706466052 70.42274077044462,65.53964575133239 C 70.1651945737585,65.52722307121202 69.60140251358703,65.4791569603684 69.2969942420548,65.43646943789447 C 68.58541148697905,65.33668336869057 67.02948964925993,65.33573829371757 66.34763982246855,64.96818965250613 C 65.89632731349457,64.72491130452194 65.5932448718899,63.71714707979011 65.39216819657382,63.3315873204679 C 65.18032659513582,62.92538607043986 64.85433030685711,62.041449457841324 64.6078931429495,61.63226662720937 C 64.32159289556799,61.15689536511311 63.677981926986035,60.33973376573957 63.36830586401938,59.97117809925789 C 63.08587391526554,59.63504654904536 62.58684302223335,59.18471326781135 62.41878668962244,59.026939046587906 C 62.30293714964136,58.918177474407656 62.10828211485963,58.79870951432822 62.065715261701754,58.7482832838066 C 62.034741490550935,58.711590636633865 61.96826528216072,58.56550002053571 61.940172938521414,58.4599559234914 C 61.889482458664546,58.26950969394475 61.78531812801332,57.5844594518728 61.631625983358454,57.11739190971535 C 61.428242046804435,56.499311944900555 60.9641188992973,55.151280416989266 60.624026152208636,54.46021054950389 C 60.35340289123759,53.910302964885624 59.7089868550332,53.02800198449492 59.43080332394384,52.645311171092715 C 59.210243728117554,52.34189230657586 58.59751198709849,51.74927000805531 58.361720183015,51.34800722055386 C 57.98200958595114,50.70182813382133 57.40578830763842,49.24087772609579 57.01225878559992,48.529511103637155 C 56.73834525845461,48.03436924073004 56.1652632228018,47.16688684054339 55.855156806688605,46.8169989400077 C 55.46761653813217,46.379743714405556 54.613631668889646,45.63940486409495 54.17449683388436,45.32771159251906 C 53.767116209400314,45.03855712446022 52.92636738712473,44.7592543070083 52.6395938637904,44.53462629785995 C 52.43784560358772,44.376598075757876 52.117382682972,43.842614391185585 51.91091761774932,43.554663345393344 C 51.507825382248015,42.992481890442875 50.736521972460935,41.85065200785411 50.323092943155366,41.30386732197167 C 50.09326026697441,40.99989982394134 49.66173897274538,40.58465844772702 49.53501294220391,40.41238692158538 C 49.402270794405155,40.231937078037824 49.183995644316155,39.75924809708955 49.01305742740592,39.52300338554422 C 48.75813297156539,39.17068571413947 48.197209137075035,38.42760616547798 47.84801948259235,38.08088206299624 C 47.58082158005197,37.81557078657665 46.98859256304352,37.40712491308508 46.702252599622646,37.22851464672234 C 46.41171624895162,37.04728680006953 45.676330501298835,36.80688073221293 45.37166856976942,36.536208763248716 C 45.03148051732872,36.233974186352334 44.42974708583478,35.39139354744203 44.10550403269541,34.921475352423954 C 43.8323086062168,34.525539339439156 43.30112074179816,33.490324880992766 42.89663254914801,32.949194490609244" fill="none" stroke="#CCC5B8" stroke-width="0.15"/><path d="M 47.622746044105675,25.928754567705564 C 47.335726114721815,25.41140206119904 46.938200422275145,24.228407196789597 46.660505995499626,23.641984991193535 C 46.40256696569761,23.09728131628657 45.82712035635094,21.963872093800386 45.47687592771526,21.397205623103968 C 45.0437628982594,20.69646462125442 44.1528047444843,19.477936308423295 43.746720309717944,18.92772113449374 C 43.48723823989082,18.576141610733675 42.96267223790089,17.978548281807228 42.74492622228268,17.69561045310875 C 42.44811435711404,17.30993494752334 41.652067715033425,16.514508160925004 41.45418748221427,15.94881812865782 C 41.24551901782354,15.352287243927059 40.96369105378231,13.962563210750021 41.2165273174942,13.326300727477335 C 41.43261646886883,12.782512356128114 42.56634926672134,11.754351194154388 43.30609485919319,11.288493026676749 C 44.312138856589804,10.654932221720818 46.522653130232854,9.838313603875456 47.556226978821535,9.33384589349066 C 48.21970421553887,9.010015290620576 49.35017101903926,8.393218553551263 49.81927698125819,8.109532880845018 C 50.43851068590069,7.735059426632338 51.566935464824255,6.886462814289864 52.16131724777398,6.548978004280028 C 52.667530294473885,6.261554636352771 53.74129453614736,5.855923581352013 54.23954956038831,5.599740531294496 C 54.70520494583403,5.3603189276670635 55.860050576224644,4.7444372013206575 56.51210005636433,4.311977360401963 C 57.480436690581044,3.6697458740745894 59.39682171354917,2.298784344880858 60.33187825927481,1.5591154250825763 C 61.013169712653934,1.0201853296864005 62.020106424641405,0.03850833899603229 62.395045746231816,-0.341679259133667 C 62.78428035798356,-0.7363622481654268 63.315334971653606,-1.4794882849307827 63.56947599365397,-1.723801130915312 C 63.7775473337207,-1.9238259079442095 64.27627577780575,-2.2134599767475045 64.50895435610117,-2.37383850899947 C 64.81007949588074,-2.581395252279465 65.53771130487083,-3.0498180073473597 65.93338276636518,-3.3531728649412806 C 66.38257713825406,-3.6975628651745547 67.21989421439575,-4.403984948435168 67.61507312213885,-4.7552491176455325 C 67.95631376477213,-5.058568977300878 68.4656205152648,-5.589272694575636 68.66599185076117,-5.78211742903489 C 68.80654520812533,-5.917391143766094 69.0662367531682,-6.198234427800269 69.21961977697083,-6.2995237655737 C 69.44332245707223,-6.4472499986591 70.03888651889976,-6.778594826910908 70.41700102169757,-6.938428961838981 C 70.7524486260428,-7.0802272193971785 71.62692266976877,-7.41563970125897 72.17927122934927,-7.550608624999135 C 72.84940862118252,-7.714359794373904 74.39919004910708,-8.083105317097145 75.29036781700519,-8.12925866519386 C 76.11513099732532,-8.17197245758171 77.79673915230424,-7.892055244207789 78.66008575442761,-7.886244565998484 C 79.52590153074198,-7.880417269229922 81.2430719328504,-7.936802721195634 82.07436270514555,-8.083599585547743 C 82.84216866564097,-8.219185726027082 84.41258307417834,-8.677244346446237 85.1735641456563,-9.036453657358527 C 86.03228635298008,-9.441800155345357 87.73115709382694,-10.48291934905147 88.52994395904389,-11.130856581372111 C 89.29230988422029,-11.749250910427838 90.61298055077206,-13.160390988436301 91.17857189900822,-13.907425218356952 C 91.76829830320933,-14.68633708042862 92.63815491538259,-16.271732511713637 92.98499673517765,-17.015099560430766 C 93.31316393596492,-17.718442322497772 93.65767717102905,-18.999576674316753 93.79876763918453,-19.523147035256006 C 93.93531534235257,-20.029859722284066 94.03013574729188,-20.87991939419053 94.11150981373518,-21.195458920307374 C 94.1625293890359,-21.393294586100055 94.31997658441685,-21.87300722752675 94.47010042602007,-22.12633547948089 C 94.79990470447801,-22.682867609597665 95.65638489828534,-23.853342700168646 96.08688997634783,-24.528837537557212 C 96.33894753737893,-24.924334803158658 96.79984263941995,-25.75815853071372 97.0486333519266,-26.172247521506655 C 97.38174260483355,-26.7266768768884 98.04651527891995,-28.118500695344185 98.6320032482287,-28.76494175378144 C 99.26200995941674,-29.46053624342366 100.82467647992212,-30.50696587935768 101.52204016428702,-31.111364952078162 C 102.12386140629997,-31.632958216498537 103.15593291245521,-32.60658054437254 103.58368296993821,-33.05651973426605 C 104.05862907196091,-33.55610321917455 104.70290136209287,-34.51372625140447 105.04149268230417,-34.8133857633512 C 105.2794779830551,-35.02400710777615 105.8367878833484,-35.257594704252305 106.0927172991418,-35.27706101121776 C 106.42384932765869,-35.30224732164332 107.24085855785607,-35.069949807904415 107.73970844627138,-35.01861538167229 C 108.30368698058415,-34.9605788557784 109.51295990008153,-34.85802154934841 110.1575751711033,-34.85876454284501 C 110.77177973658466,-34.85947248449369 111.88407436675647,-34.98834535438991 112.38575310822361,-35.023970484357456 C 112.80523286010019,-35.053758512918634 113.597172126174,-35.20994748129687 113.95243761564022,-35.12824470339605 C 114.34813620079055,-35.03724325637461 115.15823993514819,-34.55828103850544 115.59969527774228,-34.28483873346095 C 116.13908420877725,-33.95073528428536 117.086292640444,-33.228873878200254 117.53802521884958,-32.90729222063947 C 117.87052672780584,-32.67058937585237 118.44850264796,-32.33876849421863 118.60258732817613,-32.14712485313154 C 118.7487428781125,-31.965343110030254 118.91631295959706,-31.455056828498442 118.92959683236529,-31.176517620117803 C 118.94657326423852,-30.820552008462233 118.77048544114267,-29.983646879182196 118.72906531871341,-29.49510612512311 C 118.69236065412377,-29.062183104513203 118.62332779652294,-28.082954493012863 118.62100820244704,-27.536786177706215 C 118.61807159449856,-26.845336655306536 118.67712511301248,-25.528482036495728 118.70956370043548,-24.903282878417546 C 118.72729108119563,-24.56161746057263 118.79705124548707,-23.802771865465523 118.83642849705123,-23.38492268675895 C 118.91570374229232,-22.543698507824768 119.14089387405332,-20.767817038832764 119.18806976105566,-19.825646514934085 C 119.21884872002826,-19.210946299571077 119.12673618777144,-18.146830803744837 119.12118255586367,-17.69797331874218 C 119.11599562157548,-17.27875319070067 119.09872364618299,-16.265050419508302 119.1366898807843,-15.673004744411822 C 119.19610629307256,-14.746464878280378 119.36102945090892,-12.82387340193992 119.49726223603408,-11.833384679001908 C 119.60724705064835,-11.03373341686417 119.89800409438391,-9.825036646804305 119.99898331597235,-9.403648050040463 C 120.07417294330669,-9.089880018803807 120.27474984052184,-8.66668699514943 120.28895079932788,-8.529650232324956 C 120.2986604998725,-8.43595332433423 120.2101392527531,-8.149749369535568 120.14850841768032,-7.960757032686155 C 119.99529113951891,-7.490912815725019 119.53316852295697,-6.338123298656683 119.33986314824598,-5.6192516819713845 C 119.18947616530352,-5.059986665580051 119.01597213211753,-3.997857437289561 118.95109944248175,-3.5077855251869394 C 118.88208476123836,-2.986423500735766 118.8879728593022,-2.083199097909744 118.82333479389456,-1.7172084694353933 C 118.77965197244583,-1.4698696424651074 118.56183877013355,-1.0059081327632295 118.46732710662585,-0.7685924487570572 C 118.33655544270627,-0.44022909422601664 117.95285660455066,0.3851446560957569 117.77665038330959,0.9109817201947352 C 117.58831999239625,1.472999900602753 117.19588637548901,2.7315917028212007 117.05698866408258,3.4401592104607546 C 116.92092705352691,4.134258740976064 116.76636085146934,5.527413392752672 116.73649546711276,6.217188489663966 C 116.7065949696784,6.907774563133723 116.78689574061949,8.157197221730538 116.8286757238216,8.713306832279057 C 116.85676355323731,9.087167965778336 116.98557194226888,9.960844963836871 117.05551727702981,10.463506483886675 C 117.1939784488928,11.45855645189986 117.58570872183127,13.428123782610063 117.62311544219325,14.42254073314652 C 117.64618970177528,15.035944812076773 117.38508797064998,15.916972201365331 117.27014339921071,16.1691083612838 C 117.18302375284657,16.36020927899279 116.78047885671582,16.647022287178714 116.55395404414021,16.767795022781094 C 116.13969680463046,16.98865815688912 115.0785057930776,17.367941574686462 114.49015524022852,17.651271710565613 C 114.04988556343856,17.863291002031065 113.1010045625402,18.363132017842418 112.60566439641624,18.669160521568752 C 111.93189908380063,19.085422727995333 110.65699593747973,19.956320929415842 110.04799954995117,20.395701401887727 C 109.62668401394716,20.699673351574397 108.89771189327848,21.286868389526205 108.59053224644512,21.566009660938487 C 108.22014478528013,21.902589339607268 107.47742804676682,22.64263937375784 107.12058109414173,23.055914466569437 C 106.75296258711613,23.48166441761324 106.06840408173962,24.366434982264007 105.77013343562058,24.832397594854257 C 105.52748241069432,25.211470450307885 105.02475185122131,26.10062715142214 104.83222466066266,26.630817180449185 C 104.61643112653914,27.22507911191359 104.17414762352357,28.828537121541963 103.95447724678557,29.832433198491948 C 103.68357153539374,31.07047532746767 103.43666876601459,33.75299782373423 102.98394926794508,35.0774563833556 C 102.57840956035663,36.26388758252475 101.30677562915149,38.06401398370175 100.86576308204408,38.86865525466579 C 100.44604059876968,39.6344521341633 99.82186269959797,40.8014199131105 99.62506313277595,41.20584984189311 C 99.4867743502476,41.49003808159564 99.37367930128985,41.964016426132865 99.29084783983716,42.10516064708065 C 99.227164559076,42.213676504374384 98.91739281248601,42.56653621519023 98.6817289823766,42.81328452210323 C 98.00495068470279,43.52189516901049 96.55094006130216,44.982640066068655 95.79998279175818,45.76021895566944 C 95.42012037297143,46.153547590707014 94.94068532025156,46.70159390581077 94.80824412941607,46.824085366576746 C 94.73553868142692,46.89132877079001 94.54963010905327,46.98594624840661 94.44947028713129,47.009273335435246 C 94.20859609559203,47.06537260878825 93.44663396146848,47.13479810540839 92.94776330290362,47.25738883419848 C 92.40901049102521,47.38978006369248 91.22294649051308,47.714167240489004 90.59625841234117,47.956148129138356 C 90.05272805353924,48.16601961674421 88.98078091276312,48.678430948062996 88.46562995462071,48.98805939973117 C 87.9127415229228,49.32036973779045 86.85277614208864,50.086219989044736 86.34815110518073,50.509448025501406 C 85.85784905167205,50.92066340365362 84.98301114904498,51.795819103570565 84.58835348478874,52.23992362981717 C 84.23566630309193,52.63679917013105 83.55685534200752,53.53202954216247 83.2272241902123,54.021397480820816 C 82.7609786753513,54.71358207949603 82.01399098558753,56.0078925211208 81.67144925055952,56.570337805159745 C 81.46430302006277,56.910466929687644 81.2291704209124,57.45396833834358 81.0842299833913,57.54014238719177 C 80.97031909208158,57.60786788105635 80.4951373918759,57.4989872910708 80.17199392763634,57.46183598505488 C 79.50424624201516,57.385066062852346 77.84058749014277,57.09864931911287 76.8305613310722,57.05110465850219 C 75.94440995679311,57.00939111874738 74.39531667168045,57.09880262311736 73.73795199327296,57.15896824506912 C 73.16602035673577,57.21131456630668 72.33814494387329,57.46100951126436 72.0576613166882,57.48794665399036 C 71.87172178825656,57.50580395163741 71.51370649429066,57.474277722282 71.39725212163863,57.38376484782891 C 71.22443888975388,57.249447672739606 70.85342842001583,56.698459041489045 70.59167537267156,56.348525276510074 C 70.28500432718016,55.93854130632272 69.50971170034835,55.0148986200234 69.17678390849777,54.41525384203894 C 68.86736658019332,53.857954362460084 68.461229603523,52.610609063577435 68.18109377410282,52.00676498232618 C 67.916946840399,51.437385610798245 67.33381559299931,50.28219278343158 66.99432606361715,49.710877915049274 C 66.61289053287886,49.06897361114726 65.74364657265845,47.89477766494277 65.37613376087877,47.286397424336506 C 65.02892851611176,46.71163430430209 64.52513440133048,45.66537242398044 64.29174945940237,45.237036046062336 C 64.1052335131709,44.89471933885438 63.74756380588232,44.2469562623135 63.559511767584276,43.952312207759825 C 63.319861309386866,43.57682261818665 62.78070110385434,42.77550471616381 62.4601662861752,42.36727139317072 C 62.15284681285603,41.9758691401426 61.48023364142854,41.20369399083326 61.10975146705964,40.832296119458235 C 60.749914783255264,40.471570050423345 59.92611997184316,39.7825656641127 59.50691209431217,39.4067178325151 C 59.15755001149393,39.09349141596249 58.17873490041731,38.32320724160192 57.669225591567056,37.7476351214937 C 56.859553894817935,36.83298165590516 55.36498993990195,34.74881710207065 54.48925263120532,33.73847027551067 C 53.832751772115685,32.98105871724066 52.670590455573496,31.889637163865057 52.242147416770806,31.486361156177516 C 51.89972717067035,31.164054904721834 51.199466851678594,30.680091954924816 50.94745396813301,30.404719238573758 C 50.5553430651641,29.976262395644603 49.94670355519374,29.05397813369953 49.635470667415,28.638063692094054 C 49.44566514650409,28.384418077047684 49.063080036624555,27.888345424826888 48.87843847770673,27.639801210420217 C 48.609672766124866,27.278018288763377 47.91891383323959,26.462596062210324 47.622746044105675,25.928754567705564" fill="none" stroke="#CCC5B8" stroke-width="0.15"/><path d="M 65.32129271044045,21.994312463822244 C 64.72188082105822,21.379631570444317 63.63884646160828,20.42200187196026 63.24861725473816,19.987674119775022 C 63.03354281020225,19.74829480525114 62.73304558140268,19.308928105165077 62.79160195695257,19.178749509171762 C 62.87464840237272,18.994126236889137 63.535865007669244,18.7098913086653 63.93735329730219,18.456522469950183 C 64.34292408620729,18.20057727190816 65.45202971937319,17.537053066631216 66.12129842184775,17.077464494469087 C 66.9362465857001,16.517837454348697 68.5981291207481,15.328382038396436 69.43198381226269,14.683345293739498 C 70.0908403283371,14.173680160654126 71.23779098125603,13.18411676286906 71.74340254609135,12.72842888991141 C 72.32746763661817,12.202033931248488 73.29435141818858,11.198053529192016 73.74642981768838,10.79490432454726 C 74.10365124869149,10.476345561398416 74.79185419050158,9.978023303654417 75.08287254095417,9.750395270402958 C 75.47595773525954,9.442932838769881 76.16845351526939,8.901749975394596 76.46700301107674,8.666932929050919 C 76.68912325088536,8.492229506745815 77.0102623105148,8.189261656065629 77.14915681459206,8.125208234900033 C 77.24684471733681,8.080157896739689 77.56056020444689,8.076245872910762 77.75907585287112,8.071072880722065 C 78.09308839392801,8.062369061756007 79.10180695436671,8.088623227082282 79.77483175277095,8.056787452694335 C 80.48342111958429,8.023269384312524 82.12499713619118,7.939460968406484 83.04972853420831,7.820811633993279 C 83.95368567207223,7.7048277785995944 85.7731224278038,7.38996921739021 86.67929981223135,7.17089719149112 C 87.50031174667019,6.972414255527687 89.15200777715798,6.466244013739704 89.97115494361776,6.147528972477013 C 90.86585793296094,5.799416555267834 92.6789345776666,4.972016682955045 93.5850055557208,4.484014563920803 C 94.4697933201782,4.007475402631226 96.16047062308904,2.950312977530603 96.96460375477183,2.3809169499512097 C 97.82407668339364,1.7723355445996218 99.29330301542612,0.5459217014479487 99.94095228066831,-0.01654718897932656 C 100.6499834166838,-0.6323248602531222 101.47626652957058,-1.6098644371320963 101.75407889616058,-1.778635006768073 C 101.84073767735701,-1.8312800781376464 101.84476904793279,-1.3660699017907472 101.81756299092649,-1.1565852025594217 C 101.72513104786312,-0.4448658311152054 101.34402299403745,1.504009927136993 101.16492708422604,2.7577919402211606 C 101.00236971265377,3.8957939682192344 100.97062654308931,5.98066604061153 100.67602386193605,6.834893936562506 C 100.47065332130892,7.430384935230506 99.52153819628907,8.313847992166487 99.09611602515677,8.75650217324 C 98.5303127606007,9.34522367793776 97.10215967189032,10.538164345691573 96.39051100442407,11.293994362318358 C 95.70224527849034,12.024989752119765 94.34263290851655,13.609447444234867 93.7059394293206,14.481317594531292 C 93.08322202766166,15.334049297174456 91.92255473717606,17.154393863830947 91.40422422452131,18.122075293357533 C 90.83853410154221,19.17817331095219 89.93688863866299,21.246995975550824 89.55551007567594,22.229835792917253 C 89.20170580729061,23.141614682112753 88.77884386829528,24.712076037245676 88.6060760540419,25.33310313744637 C 88.47487949577936,25.804699183771334 88.28995840487688,26.71477748614135 88.1891332776315,27.141381524615728 C 88.05160462210156,27.723282896406012 87.85973133635544,29.082765382924382 87.55600952522117,29.776069232311247 C 87.27001099231022,30.42891626705549 86.51864405051681,31.867967045633783 85.87013941619955,32.43493408454214 C 85.16732359992406,33.04938366773006 83.25668808928263,33.837193330036406 82.29766693588992,34.37327142590474 C 81.16827011494426,35.004586903264574 79.38673227375605,36.076302127798385 78.69491418908572,36.44577478765906 C 78.41705598971154,36.5941678555214 77.99487486627746,36.769085918085395 77.90244421023739,36.72058593980733 C 77.72504348583436,36.62750068380383 77.46860705725797,36.02491066166723 77.23282553779076,35.678591356680506 C 76.99855695342531,35.334494272646964 76.3763974732707,34.417473678844686 75.9591968815799,33.86631616582892 C 75.46255097331888,33.21020462356756 74.38119711792407,31.819721715008523 73.7721654688642,31.106764674334478 C 73.27222174100295,30.521510359111748 72.23351970479682,29.425612886406103 71.71542586976618,28.89838645880716 C 71.16426570192257,28.337510828411315 69.94845170297727,27.24875626076549 69.37432732034233,26.63140453794841 C 68.75630276416875,25.966847281651507 67.68113835688548,24.597971847466525 67.13435078622538,23.972390140381115 C 66.67055680321133,23.441761707698188 65.76594221506024,22.450288662461606 65.32129271044045,21.994312463822244" fill="none" stroke="#CCC5B8" stroke-width="0.15"/></g><g fill="none"><path d="M -3.066847751780924,25.743534359031656 C -11.521816227932943,35.03841144137242 -11.521816227932943,35.03841144137242 -14.589300640592976,40.451418406971456 C -16.525738779630387,43.868535407403584 -17.87797409618294,47.9514328269055 -18.015400534260266,52.12235473811129 C -18.21253928241281,58.1055580847225 -15.70443933933267,64.8745468057751 -15.650179540823814,72.64932087766576 C -15.60834824654562,78.64324033710936 -20.55459286870917,86.1945382317665 -17.723407834153026,93.96138356540362 C -14.972057797115795,101.50921598735448 -5.48659883486236,111.32337999549146 4.11218681689649,126.86380741021078 C 20.166219718504834,152.85527571383366 20.166219718504834,152.85527571383366 51.222642681309104,205.58499226332071" stroke="#67635C" stroke-width="2.3" stroke-linejoin="round" stroke-linecap="butt"/><path d="M -3.066847751780924,25.743534359031656 C -11.521816227932943,35.03841144137242 -11.521816227932943,35.03841144137242 -14.589300640592976,40.451418406971456 C -16.525738779630387,43.868535407403584 -17.87797409618294,47.9514328269055 -18.015400534260266,52.12235473811129 C -18.21253928241281,58.1055580847225 -15.70443933933267,64.8745468057751 -15.650179540823814,72.64932087766576 C -15.60834824654562,78.64324033710936 -20.55459286870917,86.1945382317665 -17.723407834153026,93.96138356540362 C -14.972057797115795,101.50921598735448 -5.48659883486236,111.32337999549146 4.11218681689649,126.86380741021078 C 20.166219718504834,152.85527571383366 20.166219718504834,152.85527571383366 51.222642681309104,205.58499226332071" stroke="#CCC5B8" stroke-width="1.7" stroke-linejoin="round" stroke-linecap="round"/></g><g fill="none"><path d="M -8.69715313636203,-25.181383027626786 C -14.782156775326397,-38.437869728018484 -14.782156775326397,-38.437869728018484 -16.731494326197154,-45.42297617080597 C -18.89970049509838,-53.19235960720376 -20.258690677451444,-60.6681250047757 -20.5192757681776,-67.54386915837989 C -20.714036701283344,-72.68279074219217 -18.30781368379183,-77.70138015013099 -18.152331948916668,-82.91290297517935 C -17.919609629314884,-90.7134184600155 -19.793777371703747,-98.27129672721307 -19.384991314752913,-105.56344312227034 C -19.137316921752895,-109.98159266859969 -19.137316921752895,-109.98159266859969 -16.159915965913743,-118.45469502230077" stroke="#67635C" stroke-width="2.3" stroke-linejoin="round" stroke-linecap="butt"/><path d="M -8.69715313636203,-25.181383027626786 C -14.782156775326397,-38.437869728018484 -14.782156775326397,-38.437869728018484 -16.731494326197154,-45.42297617080597 C -18.89970049509838,-53.19235960720376 -20.258690677451444,-60.6681250047757 -20.5192757681776,-67.54386915837989 C -20.714036701283344,-72.68279074219217 -18.30781368379183,-77.70138015013099 -18.152331948916668,-82.91290297517935 C -17.919609629314884,-90.7134184600155 -19.793777371703747,-98.27129672721307 -19.384991314752913,-105.56344312227034 C -19.137316921752895,-109.98159266859969 -19.137316921752895,-109.98159266859969 -16.159915965913743,-118.45469502230077" stroke="#CCC5B8" stroke-width="1.7" stroke-linejoin="round" stroke-linecap="round"/></g><g fill="none"><path d="M 21.712006876246832,-1.8086955036575354 C 17.641670598742476,-7.904447360970467 17.641670598742476,-7.904447360970467 17.28885908262708,-10.919025978021642 C 17.074353738115775,-12.751855109924112 19.34921481981697,-14.409300460235519 20.09035573100832,-15.664804625542434 C 20.8333330361817,-16.923419670654752 21.976849108910695,-18.81223262798649 22.891852379389558,-20.410583273063228 C 24.02264782270988,-22.385885093935382 25.647251873426256,-25.32324034169548 26.990643472384814,-27.718400190148678 C 28.29974436780351,-30.05242245492369 31.786801985551957,-32.786082705575595 31.08943456538007,-35.02621710723413 C 30.310238724314466,-37.52920672032803 25.64483396187636,-39.34802373344867 22.62373274709437,-41.74610877206608 C 19.68728272392945,-44.07699951903753 16.759910593314448,-47.640983038090326 14.158030928808667,-48.46600043689802 C 12.069701645909952,-49.12817863688726 9.441238060982686,-47.04958297781636 7.621442748624271,-46.50311211835556 C 5.787991440821943,-45.95254046606584 3.250909661518487,-44.7536086982703 1.084854568439875,-44.5402237998131 C -1.3904156794494866,-44.296377144117336 -4.96796499848825,-44.84012479835641 -7.823319878878641,-44.98159998530953 C -10.620928937118379,-45.12021402143315 -14.273354332242398,-46.08246367494473 -16.731494326197154,-45.42297617080597 C -19.08949810872473,-44.79035393077358 -21.445423739775833,-42.179918566582586 -23.47778726601058,-40.781706711878954 C -25.74124857163433,-39.22450575381544 -28.259785457822577,-37.040976949608016 -30.22408020582401,-36.14043725295194 C -31.760513353452943,-35.436052617140106 -33.88459811392388,-35.60430953330548 -35.187028998775986,-35.41355256453126 C -36.44839271235831,-35.22881038640633 -38.45036719477258,-34.354800764806505 -40.14997779172796,-34.686667876110576 C -42.43668483619861,-35.13317183566848 -45.685232474909746,-36.88350887881644 -48.56157001310741,-38.02507446219128 C -51.341107927845556,-39.1282220514477 -54.59385795550998,-40.85021340844255 -56.97316223448687,-41.36348104827198 C -58.90944372858667,-41.78117904566698 -61.3517651372003,-41.19397983196248 -62.962335880855846,-41.13163261617981 C -64.49750910832019,-41.07220413292097 -66.90327702697864,-40.718079798662956 -68.95150952722481,-40.899784184087636 C -71.62415716104816,-41.13688216769166 -75.60176512002043,-41.99765825044243 -78.94388101550192,-42.54939980641754 C -81.93859475053856,-43.04378960842981 -81.93859475053856,-43.04378960842981 -88.936252503779,-44.19901542874745" stroke="#99948A" stroke-width="4.268890064409418" stroke-linejoin="round" stroke-linecap="butt"/><path d="M 21.712006876246832,-1.8086955036575354 C 17.56326803960572,-8.574353720315173 17.56326803960572,-8.574353720315173 17.28885908262708,-10.919025978021642 C 17.12202159245162,-12.344559747279119 19.513912800081716,-14.688301385859278 20.09035573100832,-15.664804625542434 C 20.668226968365392,-16.643727438407574 22.18018316901711,-19.167421660225763 22.891852379389558,-20.410583273063228 C 23.771359946416474,-21.94692913374157 25.94578333986149,-25.855498085796192 26.990643472384814,-27.718400190148678 C 28.008833057710465,-29.533750840529244 31.631831447735983,-33.2838903503886 31.08943456538007,-35.02621710723413 C 30.48339335566238,-36.97298680630716 24.97347813636925,-39.880931519808094 22.62373274709437,-41.74610877206608 C 20.339827173521652,-43.55902379748832 16.181715112313164,-47.82432023782537 14.158030928808667,-48.46600043689802 C 12.533774819887444,-48.98102792577854 9.036839102680815,-46.92814500904729 7.621442748624271,-46.50311211835556 C 6.195425064778016,-46.07488972213022 2.769564085278795,-44.706189831946475 1.084854568439875,-44.5402237998131 C -0.8403556243629615,-44.3505652898275 -5.602488305241671,-44.87156372879044 -7.823319878878641,-44.98159998530953 C -9.999238035287327,-45.08941090229457 -14.819607664232345,-45.93591089624722 -16.731494326197154,-45.42297617080597 C -18.565497268163046,-44.93093665078077 -21.897060078939113,-41.869204821092886 -23.47778726601058,-40.781706711878954 C -25.238257170384607,-39.57055041116289 -28.696295401822898,-36.840857017017775 -30.22408020582401,-36.14043725295194 C -31.419083765090956,-35.5925825362094 -34.17402719944657,-35.5619190958001 -35.187028998775986,-35.41355256453126 C -36.16808966489557,-35.269864203767426 -38.828058438540445,-34.42854901176297 -40.14997779172796,-34.686667876110576 C -41.928527715205135,-35.0339487335445 -46.324418594509225,-37.137190119566405 -48.56157001310741,-38.02507446219128 C -50.72343283568152,-38.88307814272405 -55.12259223972707,-40.9642728839602 -56.97316223448687,-41.36348104827198 C -58.47915895212005,-41.688357268468096 -61.70966974690153,-41.180124895121885 -62.962335880855846,-41.13163261617981 C -64.156359502217,-41.08541046253405 -67.35843980481113,-40.758458550979555 -68.95150952722481,-40.899784184087636 C -71.03023546464297,-41.08419372689077 -76.34445754123854,-42.12026748510356 -78.94388101550192,-42.54939980641754 C -81.2731028094193,-42.93392520798264 -81.2731028094193,-42.93392520798264 -88.936252503779,-44.19901542874745" stroke="#67635C" stroke-width="3.668890064409418" stroke-linejoin="round" stroke-linecap="round"/><path d="M 21.712006876246832,-1.8086955036575354 C 17.680871878310853,-7.569494181298115 17.680871878310853,-7.569494181298115 17.28885908262708,-10.919025978021642 C 17.050519810947854,-12.955502791246609 19.266865829684598,-14.26979999742364 20.09035573100832,-15.664804625542434 C 20.91588607008985,-17.063265786778345 21.875182078857488,-18.634638111866852 22.891852379389558,-20.410583273063228 C 24.148291760856583,-22.605363074032287 25.49798614020864,-25.057111469645125 26.990643472384814,-27.718400190148678 C 28.445200022850027,-30.311758262120915 31.864287254459946,-32.53717888316909 31.08943456538007,-35.02621710723413 C 30.22366140864051,-37.807316677338456 25.98051187462991,-39.081569840268955 22.62373274709437,-41.74610877206608 C 19.361010499133346,-44.33598737981214 17.04900833381509,-47.5493144382228 14.158030928808667,-48.46600043689802 C 11.837665058921205,-49.201753992441624 9.643437540133622,-47.11030196220089 7.621442748624271,-46.50311211835556 C 5.5842746288439065,-45.89136583803365 3.491582449638333,-44.77731813143221 1.084854568439875,-44.5402237998131 C -1.6654457069927482,-44.26928307126225 -4.65070334511154,-44.8244053331394 -7.823319878878641,-44.98159998530953 C -10.931774388033906,-45.13561558100244 -14.000227666247426,-46.155740064293475 -16.731494326197154,-45.42297617080597 C -19.351498529005575,-44.720062570769976 -21.219605570194197,-42.33527543932743 -23.47778726601058,-40.781706711878954 C -25.99274427225919,-39.05148342514172 -28.04153048582242,-37.14103691590313 -30.22408020582401,-36.14043725295194 C -31.931228147633934,-35.357787657605456 -33.73988357116254,-35.62550475205817 -35.187028998775986,-35.41355256453126 C -36.58854423608968,-35.20828347772578 -38.261521572888654,-34.31792664132828 -40.14997779172796,-34.686667876110576 C -42.69076339669535,-35.18278338673046 -45.36563941511,-36.756668258441465 -48.56157001310741,-38.02507446219128 C -51.64994547392757,-39.250794005809524 -54.32949081340144,-40.793183670683725 -56.97316223448687,-41.36348104827198 C -59.12458611681999,-41.82758993426643 -61.172812832349685,-41.200907300382774 -62.962335880855846,-41.13163261617981 C -64.66808391137178,-41.06560096811444 -66.6756956380624,-40.697890422504656 -68.95150952722481,-40.899784184087636 C -71.92111800925076,-41.163226388092106 -75.23041890941138,-41.93635363311186 -78.94388101550192,-42.54939980641754 C -82.27134072109818,-43.0987218086534 -82.27134072109818,-43.0987218086534 -88.936252503779,-44.19901542874745" stroke="#CCC5B8" stroke-width="2.5613340386456507" stroke-linejoin="round" stroke-linecap="butt"/><path d="M 21.712006876246832,-1.8086955036575354 C 17.680871878310853,-7.569494181298115 17.680871878310853,-7.569494181298115 17.28885908262708,-10.919025978021642 C 17.050519810947854,-12.955502791246609 19.266865829684598,-14.26979999742364 20.09035573100832,-15.664804625542434 C 20.91588607008985,-17.063265786778345 21.875182078857488,-18.634638111866852 22.891852379389558,-20.410583273063228 C 24.148291760856583,-22.605363074032287 25.49798614020864,-25.057111469645125 26.990643472384814,-27.718400190148678 C 28.445200022850027,-30.311758262120915 31.864287254459946,-32.53717888316909 31.08943456538007,-35.02621710723413 C 30.22366140864051,-37.807316677338456 25.98051187462991,-39.081569840268955 22.62373274709437,-41.74610877206608 C 19.361010499133346,-44.33598737981214 17.04900833381509,-47.5493144382228 14.158030928808667,-48.46600043689802 C 11.837665058921205,-49.201753992441624 9.643437540133622,-47.11030196220089 7.621442748624271,-46.50311211835556 C 5.5842746288439065,-45.89136583803365 3.491582449638333,-44.77731813143221 1.084854568439875,-44.5402237998131 C -1.6654457069927482,-44.26928307126225 -4.65070334511154,-44.8244053331394 -7.823319878878641,-44.98159998530953 C -10.931774388033906,-45.13561558100244 -14.000227666247426,-46.155740064293475 -16.731494326197154,-45.42297617080597 C -19.351498529005575,-44.720062570769976 -21.219605570194197,-42.33527543932743 -23.47778726601058,-40.781706711878954 C -25.99274427225919,-39.05148342514172 -28.04153048582242,-37.14103691590313 -30.22408020582401,-36.14043725295194 C -31.931228147633934,-35.357787657605456 -33.73988357116254,-35.62550475205817 -35.187028998775986,-35.41355256453126 C -36.58854423608968,-35.20828347772578 -38.261521572888654,-34.31792664132828 -40.14997779172796,-34.686667876110576 C -42.69076339669535,-35.18278338673046 -45.36563941511,-36.756668258441465 -48.56157001310741,-38.02507446219128 C -51.64994547392757,-39.250794005809524 -54.32949081340144,-40.793183670683725 -56.97316223448687,-41.36348104827198 C -59.12458611681999,-41.82758993426643 -61.172812832349685,-41.200907300382774 -62.962335880855846,-41.13163261617981 C -64.66808391137178,-41.06560096811444 -66.6756956380624,-40.697890422504656 -68.95150952722481,-40.899784184087636 C -71.92111800925076,-41.163226388092106 -75.23041890941138,-41.93635363311186 -78.94388101550192,-42.54939980641754 C -82.27134072109818,-43.0987218086534 -82.27134072109818,-43.0987218086534 -88.936252503779,-44.19901542874745" stroke="#67635C" stroke-width="2.261334038645651" stroke-linejoin="round" stroke-linecap="round"/><g><path fill="#67635C" stroke="#67635C" stroke-width="0.3" stroke-linejoin="round" stroke-linecap="round" d="M 23.497175343040492,-2.6754109304312363 C 27.920323136660244,6.43491954393287 29.167628390186078,5.445572012034308 32.20010211050557,3.5895090533620446 L 28.13187050281786,15.59927440603851 C 27.133512586342224,11.450454688372542 24.349986203072923,8.168350397480271 19.926838409453172,-0.9419800768838344 Z"/><path fill="none" stroke="#99948A" stroke-width="0.3" stroke-linejoin="round" stroke-linecap="round" d="M 23.497175343040492,-2.6754109304312363 C 27.920323136660244,6.43491954393287 29.167628390186078,5.445572012034308 32.20010211050557,3.5895090533620446 M 19.926838409453172,-0.9419800768838344 C 24.349986203072923,8.168350397480271 27.133512586342224,11.450454688372542 28.13187050281786,15.59927440603851"/></g><g fill="none"><line x1="-17.17612168794721" y1="-48.019629235212385" x2="-15.759585928744201" y2="-42.97436540249907" stroke="#1A1917" stroke-width="2.3" stroke-linejoin="round" stroke-linecap="butt"/><line x1="-17.17612168794721" y1="-48.019629235212385" x2="-15.759585928744201" y2="-42.97436540249907" stroke="#CCC5B8" stroke-width="1.7" stroke-linejoin="round" stroke-linecap="round"/></g><g fill="none"><line x1="14.656589222019107" y1="-11.026058723679006" x2="19.921128943235054" y2="-10.811993232364278" stroke="#1A1917" stroke-width="1.3" stroke-linejoin="round" stroke-linecap="butt"/><line x1="14.656589222019107" y1="-11.026058723679006" x2="19.921128943235054" y2="-10.811993232364278" stroke="#CCC5B8" stroke-width="0.7" stroke-linejoin="round" stroke-linecap="round"/></g></g><g fill="#99948A" stroke="#1A1917" stroke-width="0.3"><polygon points="-3.159368971055594,4.834549374084441 -3.5794698681332897,5.848762657374517 -4.593683151423367,6.2688635544522135 -5.607896434713443,5.848762657374518 -6.0279973317911395,4.834549374084441 -5.607896434713444,3.820336090794364 -4.593683151423367,3.400235193716668 -3.57946986813329,3.8203360907943638"/></g><g fill="#99948A" stroke="#1A1917" stroke-width="0.3"><polygon points="15.056606504204392,7.986030713556572 7.35396028076784,8.811502972391802 6.777749266923003,1.9718569266533317 15.326584507795657,0.9703306560607535"/><polygon points="17.18770361225662,-3.950701508004718 19.07065231377588,-0.07240357686622735 13.316012298115385,0.6017728449616021 12.842314091069438,-3.4416237636332694"/><polygon points="12.842314091069438,-3.4416237636332694 12.126378010226965,-9.552716181106534 14.292774660208298,-9.913368975505595 17.18770361225662,-3.950701508004718"/><polygon points="9.286439624279573,-9.079934931734723 12.126378010226965,-9.552716181106534 12.588874197935652,-5.604937850824662 9.73274800870845,-5.270332570685184"/><polygon points="9.73274800870845,-5.270332570685184 6.202468433915955,-4.85674783813745 5.89425788253785,-8.51521848228899 9.286439624279573,-9.079934931734723"/><polygon points="10.972053762186267,0.8763758738852232 6.727353517204657,1.3736575135891282 6.202468433915955,-4.85674783813745 10.244915662006534,-5.330334821901044"/><polygon points="10.244915662006534,-5.330334821901044 12.588874197935652,-5.604937850824662 13.316012298115385,0.6017728449616021 10.972053762186267,0.8763758738852232"/></g><g fill="#99948A" stroke="#1A1917" stroke-width="0.3"><polygon points="-9.61532894567021,14.469526639081833 -9.72390243999114,17.920299084113203 -16.875056651227702,17.69529850424021 -17.122854617900455,14.23331335381818"/><polygon points="-17.122854617900455,14.23331335381818 -17.421093250242528,10.06662171258304 -17.048791124124552,9.679120805842018 -9.472106420264758,9.917510078612105 -9.61532894567021,14.469526639081833"/><polygon points="-9.472106420264758,9.917510078612105 -4.253766786036891,10.081697482350421 -4.505562805763272,18.084486487851542 -9.72390243999114,17.920299084113203"/><polygon points="-10.331042568769522,17.9011963103505 -4.505562805763272,18.084486487851542 -4.6734629946250585,23.420828924498416 -10.467085749270243,22.22503300311337"/><polygon points="-10.467085749270243,22.22503300311337 -16.553768008971034,20.968749995200824 -16.648493895135985,20.860606548369788 -16.875056651227702,17.69529850424021 -10.331042568769522,17.9011963103505"/><polygon points="-0.1368865403745625,10.211229081751 4.696314179338653,10.363298654361992 1.6323946772424955,15.646743244964062 -0.3059881124975832,15.585754873181784"/><polygon points="-0.3059881124975832,15.585754873181784 -4.42286835815991,15.456223273781196 -4.253766786036891,10.081697482350421 -0.1368865403745625,10.211229081751"/><polygon points="1.6323946772424955,15.646743244964062 -2.482852333707909,22.743104472510073 -4.210432815473786,23.51639772888136 -4.6734629946250585,23.420828924498416 -4.42286835815991,15.456223273781196"/></g><g fill="#99948A" stroke="#1A1917" stroke-width="0.3"><polygon points="-22.327665918531984,-4.628508549254377 -18.354975222302564,-9.771081787848576 -10.700514598832402,-3.8579322627623585 -14.785132883201747,1.1981757632962533"/><polygon points="-22.93868391943334,0.49314454011086317 -24.35222704392463,-1.4614675618816884 -24.355096604919478,-1.7702169703926731 -22.729728839640487,-4.108045674989831 -22.327665918531984,-4.628508549254377 -20.232494294427408,-3.0099669297363834"/><polygon points="-20.232494294427408,-3.0099669297363834 -17.778730196865567,-1.1144089378796656 -21.044240851513422,3.112733064107814 -22.93868391943334,0.49314454011086317"/><polygon points="-17.778730196865567,-1.1144089378796656 -14.785132883201747,1.1981757632962533 -18.761608769395835,6.120420693881901 -18.871248376700912,6.11749274580188 -21.044240851513422,3.112733064107814"/><polygon points="-9.758185149817377,-11.014827475612718 -6.7783869423029195,-8.712902725802085 -10.700514598832402,-3.8579322627623585 -13.572837821315302,-6.076831481714631"/><polygon points="-11.279442210778257,-9.045588879176037 -13.572837821315302,-6.076831481714631 -18.354975222302564,-9.771081787848576 -16.06157961176552,-12.739839185309982"/><polygon points="-16.06157961176552,-12.739839185309982 -14.54032255080464,-14.709077781746661 -9.758185149817377,-11.014827475612718 -11.279442210778257,-9.045588879176037"/><polygon points="-14.54032255080464,-14.709077781746661 -9.411380369565123,-21.348396777452358 -8.698174345756168,-22.18156510664553 -4.804219414530529,-11.156608253966365 -6.7783869423029195,-8.712902725802085"/></g><g fill="#99948A" stroke="#1A1917" stroke-width="0.3"><polygon points="8.177127412734766,-13.326473168582275 11.01965138125098,-12.623150438353608 10.441363879789526,-10.28596437433559 7.29522504628039,-9.762208135198941"/><polygon points="7.29522504628039,-9.762208135198941 6.126722459593965,-9.567680635742821 3.9893294553654948,-10.096533549546155 4.983996951992134,-14.11654609619883 8.177127412734766,-13.326473168582275"/><polygon points="14.194408149236283,-11.842909174166717 13.584176209371426,-10.80916683079493 10.441363879789526,-10.28596437433559 11.02088371706315,-12.628131002656163"/><polygon points="11.02088371706315,-12.628131002656163 11.888409890182796,-16.134293727705597 16.110926481129937,-15.089520867362406 14.194408149236283,-11.842909174166717"/><polygon points="12.31599309251732,-16.028497263508036 5.852755460923951,-17.627689385550816 7.178668624693506,-22.98645256239392 8.672152714498516,-22.785539773195815 13.60849685461058,-21.252234198546358"/><polygon points="13.60849685461058,-21.252234198546358 18.797415612997902,-19.640475003317768 16.110926481129937,-15.089520867362406 12.31599309251732,-16.028497263508036"/><polygon points="-1.6214697160106244,-19.80323993618162 -0.7068305545612628,-23.499812828284952 2.546754112217569,-23.609566575044862 7.178668624693506,-22.98645256239392 5.928813133830287,-17.935081353610116"/><polygon points="0.760992966110758,-10.895317467946915 -2.911820966395421,-11.804077974891921 -3.316910347511114,-12.951007774326786 -2.8859135041373625,-14.692909187418337 1.4360328564488136,-13.623534523247594"/><polygon points="1.4360328564488136,-13.623534523247594 4.664369345703551,-12.824750604846834 3.9893294553654948,-10.096533549546155 0.760992966110758,-10.895317467946915"/><polygon points="-6.194271655822545,-21.09768251350182 -6.966062110576981,-23.28285327517241 -6.962000236587787,-23.2888060835608 -0.7068305545612628,-23.499812828284952 -1.5834656964478717,-19.95683562115538"/><polygon points="-1.5834656964478717,-19.95683562115538 -2.3066562302850304,-17.034014648814825 -4.993840791575579,-17.69890191210912 -6.194271655822545,-21.09768251350182"/><polygon points="-2.3066562302850304,-17.034014648814825 -3.316910347511114,-12.951007774326786 -4.993840791575579,-17.69890191210912"/></g><g fill="#99948A" stroke="#1A1917" stroke-width="0.3"><polygon points="7.104744578897229,24.584055176150216 -0.8760639177669249,23.959115159431963 3.310134902551335,16.740404126957475 8.585322285196446,18.881387661413477"/><polygon points="9.85220318235,11.320633364273196 12.577854436109982,16.05136234920512 11.786055513211656,19.532901168491723 7.264050821908409,17.697603787650912"/><polygon points="7.264050821908409,17.697603787650912 3.6141032971595894,16.216238864420962 7.323027248779062,9.820544011559472 8.891092608987446,9.65249858699433 9.85220318235,11.320633364273196"/><polygon points="15.95937060902854,24.572225656898027 11.183509775500003,24.887861401997263 13.215008193339184,15.955365539111856 15.01524897812441,15.762438487296548"/><polygon points="22.885565796872143,19.052701373700163 23.346058095035875,23.349646817242345 18.356706152571533,24.413786201286836 15.95937060902854,24.572225656898027 15.453217122150901,19.849206557893325"/><polygon points="15.453217122150901,19.849206557893325 15.01524897812441,15.762438487296548 22.447597652845648,14.965933303103387 22.885565796872143,19.052701373700163"/><polygon points="22.447597652845648,14.965933303103387 25.835018194030745,14.602912387349912 27.715545436730576,22.417713447538098 23.346058095035875,23.349646817242345"/><polygon points="21.464965003963773,15.071239449685798 17.457708210749466,15.50068658004507 16.740820452389805,8.811263979279978 20.52500959759685,8.405722419802755 20.76907387790453,8.577740611061346"/><polygon points="20.76907387790453,8.577740611061346 25.123695284721137,11.646907869261593 25.835018194030745,14.602912387349912 21.464965003963773,15.071239449685798"/><polygon points="17.457708210749466,15.50068658004507 13.215008193339184,15.955365539111856 9.543285831061858,9.582604761339361 16.740820452389805,8.811263979279978"/></g><g fill="#99948A" stroke="#1A1917" stroke-width="0.3"><polygon points="27.01851844893233,-11.735866142500829 29.420468515199982,-8.566019186380359 23.685163682734476,-4.921270264139683 22.16439301792802,-8.053592306846507"/><polygon points="31.35252324556861,-3.222774578855108 32.798623073764894,-4.107877822346586 35.379777915802435,-0.7015348120516365 33.57266161732949,0.40453301670936354"/><polygon points="30.382007823354428,2.3574120412703077 28.304770750812548,3.628810622861179 27.758692095036395,3.468951307545953 26.077372092501513,0.005946775265506216 28.16186945159355,-1.269895554294162"/><polygon points="28.16186945159355,-1.269895554294162 31.35252324556861,-3.222774578855108 33.57266161732949,0.40453301670936354 30.382007823354428,2.3574120412703077"/><polygon points="25.59610754617328,-5.424757102422083 29.784067591992102,-8.086178475699537 32.798623073764894,-4.107877822346586 28.1453357023762,-1.2597758690732577"/><polygon points="28.1453357023762,-1.2597758690732577 26.077372092501513,0.005946775265506216 23.948932192311638,-4.377987877228555 25.59610754617328,-5.424757102422083"/></g><g fill-rule="nonzero" fill="#99948A" stroke="#1A1917" stroke-width="0.6"><path d="M -36.49150530507638,17.281159820762614 L -36.65187615223258,12.216295584794844 L -36.77832904551885,8.222634965689808 L -36.90989225989585,4.067579161700808 L -31.610361746019983,3.8997779811666895 L -31.478798531642983,8.05483378515569 L -31.35234563835672,12.048494404260726 L -27.644818015404443,11.931101455891937 L -27.484447168248238,16.995965691859706 L -31.191974791200515,17.113358640228494 Z"/></g><g fill-rule="nonzero" fill="#99948A" stroke="#1A1917" stroke-width="0.3"><path d="M 7.007755862938177,-38.13096913286787 L 6.050658233352896,-38.09147693671763 L 4.584655676216844,-38.03098607481021 L 3.338690943110928,-37.979574513319434 L 3.294991697168297,-39.038630447996944 L 3.196868661127096,-41.41665280070375 L 4.442833394233012,-41.468064362194525 L 5.908835951369064,-41.52855522410195 L 6.006958987410265,-39.15053287139514 L 6.9640566169955465,-39.19002506754538 Z"/></g><g stroke="#CCC5B8" stroke-width="0.6" stroke-linecap="square"><polyline points="29.1302284192935,19.74809412370448 36.90820177798062,17.876428974284487"/></g><g fill-rule="nonzero" fill="#99948A" stroke="#1A1917" stroke-width="0.3"><path d="M -22.23022526839584,45.333170626137004 L -20.91170942324899,46.369403204647924 L -19.52554279142738,47.45880309955652 L -20.181209661345314,48.293082174594815 L -21.65345529213812,50.16638671298141 L -23.03962192395973,49.07698681807281 L -21.567376293166923,47.20368227968622 L -22.885892138313775,46.1674497011753 Z"/></g><g fill-rule="nonzero" fill="#99948A" stroke="#1A1917" stroke-width="0.3"><path d="M -80.18022421105267,6.676575732448286 L -81.18278583061912,8.011428729369777 L -82.09008409633252,9.219444062744431 L -83.88908381703739,7.868277995957268 L -82.981785551324,6.660262662582615 L -83.84624845028397,6.010994671249337 L -82.84368683071752,4.6761416743278446 L -81.97922393175755,5.325409665661122 Z"/></g><g><path fill="none" stroke="#1A1917" stroke-width="1.9" stroke-linejoin="round" stroke-linecap="round" d="M -18.481707451009342,22.561928110630348 M -19.480907659656324,8.602102971295144 M -26.853553855061225,-1.5926079134074067 L -18.04897479836367,-14.256571165508305 L -10.284682526878845,-23.32682885157253 M -6.247248509303574,-25.264026093525644 L 5.942766485636985,-25.675234024401096 L 20.1993482633412,-21.246917096986984 M 24.8357340842771,-17.845247885025472 L 38.26504955114454,-0.12261686398248237 M 26.135154669866587,7.301634970706571 M 30.128586335769135,23.89691384137045 L 14.881013554744987,27.148947952108788 L -0.6396983470352291,25.93359314696191 M -5.38535851984427,25.264996864005003 L -18.481707451009342,22.561928110630348"/><g stroke="#1A1917" stroke-width="3.8" stroke-linecap="butt"><line x1="-9.049116202031017" y1="-24.770219255067726" x2="-8.146168400174977" y2="-25.1999694931402" stroke="#CCC5B8" stroke-width="3.8" stroke-linecap="butt"/><line x1="-12.480317849083967" y1="-23.137168350392333" x2="-9.049116202031017" y2="-24.770219255067726"/><line x1="-8.146168400174977" y1="-25.1999694931402" x2="-4.714966753122027" y2="-26.83302039781559"/></g><g stroke="#1A1917" stroke-width="3.8" stroke-linecap="butt"><line x1="19.03284816998772" y1="-23.03994818236723" x2="22.013830979155482" y2="-20.683310430941216"/><line x1="23.68823728129121" y1="-19.35959628851034" x2="26.669220090458975" y2="-17.002958537084325"/></g><g stroke="#1A1917" stroke-width="3.8" stroke-linecap="butt"><line x1="-2.5338998578110177" y1="25.785267031342578" x2="-3.524580117339055" y2="25.649059016227973" stroke="#CCC5B8" stroke-width="3.8" stroke-linecap="butt"/><line x1="1.2306851283955247" y1="26.302857488778074" x2="-2.5338998578110177" y2="25.785267031342578"/><line x1="-3.524580117339055" y1="25.649059016227973" x2="-7.2891651035455975" y2="25.131468558792477"/></g><circle cx="-18.04897479836367" cy="-14.256571165508305" r="1.9" stroke="none" fill="#1A1917"/><circle cx="5.942766485636985" cy="-25.675234024401096" r="1.9" stroke="none" fill="#1A1917"/><circle cx="38.26504955114454" cy="-0.12261686398248237" r="1.9" stroke="none" fill="#1A1917"/><circle cx="30.128586335769135" cy="23.89691384137045" r="1.9" stroke="none" fill="#1A1917"/><circle cx="14.881013554744987" cy="27.148947952108788" r="1.9" stroke="none" fill="#1A1917"/></g><g><path fill="none" stroke="#1A1917" stroke-width="1.9" stroke-linejoin="round" stroke-linecap="round" d="M -40.37521862968944,21.017059854063906 L -41.01933933314081,0.6743107047775014 L -26.853553855061225,-1.5926079134074067 L -20.88270913334947,6.663726930551645 M -19.30617281149513,11.043323364334888 L -18.481707451009342,22.561928110630348 L -40.37521862968944,21.017059854063906"/>
      <g stroke="#1A1917" stroke-width="3.8" stroke-linecap="butt">
        <line x1="-19.769304714304678" y1="8.203314732416654" x2="-19.441821775220774" y2="9.148171824578725" stroke="#CCC5B8" stroke-width="3.8" stroke-linecap="butt"/>
        <line x1="-21.013739882823515" y1="4.612857782200778" x2="-19.769304714304678" y2="8.203314732416654"/>
        <line x1="-19.441821775220774" y1="9.148171824578725" x2="-18.197386606701937" y2="12.738628774794602"/>
      </g>
      <circle cx="-40.37521862968944" cy="21.017059854063906" r="2.5" stroke="none" fill="#1A1917"/>
      <circle cx="-41.01933933314081" cy="0.6743107047775014" r="2.5" stroke="none" fill="#1A1917"/>
      <circle cx="-26.853553855061225" cy="-1.5926079134074067" r="2.5" stroke="none" fill="#1A1917"/>
      <circle cx="-18.481707451009342" cy="22.561928110630348" r="2.5" stroke="none" fill="#1A1917"/>
    </g>
  </g>
</svg>
